<mxfile host="app.diagrams.net" modified="2024-04-27T12:59:19.273Z" agent="Mozilla/5.0 (Windows NT 10.0; Win64; x64) AppleWebKit/537.36 (KHTML, like Gecko) Chrome/124.0.0.0 Safari/537.36" etag="t5tmPsbS1rIDxL1sJBsk" version="24.3.1" type="device">
  <diagram name="Page-1" id="7f5oAGt-ftSjJnX5ioo1">
    <mxGraphModel dx="993" dy="568" grid="1" gridSize="10" guides="1" tooltips="1" connect="1" arrows="1" fold="1" page="1" pageScale="1" pageWidth="850" pageHeight="1100" math="0" shadow="0">
      <root>
        <mxCell id="0" />
        <mxCell id="1" parent="0" />
        <mxCell id="-uzAYIWZktLX1qMhyTxo-26" value="" style="rounded=1;whiteSpace=wrap;html=1;" vertex="1" parent="1">
          <mxGeometry x="100" y="330" width="610" height="270" as="geometry" />
        </mxCell>
        <mxCell id="-uzAYIWZktLX1qMhyTxo-7" value="" style="rounded=0;whiteSpace=wrap;html=1;" vertex="1" parent="1">
          <mxGeometry x="100" y="50" width="580" height="260" as="geometry" />
        </mxCell>
        <mxCell id="KPFv8x_Nm6GrmN-F99KM-2" value="Official Legal websites" style="rounded=0;whiteSpace=wrap;html=1;" parent="1" vertex="1">
          <mxGeometry x="140" y="70" width="120" height="60" as="geometry" />
        </mxCell>
        <mxCell id="KPFv8x_Nm6GrmN-F99KM-3" value="Web Scrapped cases and IPC section" style="rounded=0;whiteSpace=wrap;html=1;" parent="1" vertex="1">
          <mxGeometry x="320" y="70" width="120" height="60" as="geometry" />
        </mxCell>
        <mxCell id="KPFv8x_Nm6GrmN-F99KM-4" value="" style="endArrow=classic;html=1;rounded=0;exitX=1;exitY=0.5;exitDx=0;exitDy=0;entryX=0;entryY=0.5;entryDx=0;entryDy=0;" parent="1" source="KPFv8x_Nm6GrmN-F99KM-2" target="KPFv8x_Nm6GrmN-F99KM-3" edge="1">
          <mxGeometry width="50" height="50" relative="1" as="geometry">
            <mxPoint x="400" y="260" as="sourcePoint" />
            <mxPoint x="450" y="210" as="targetPoint" />
          </mxGeometry>
        </mxCell>
        <mxCell id="KPFv8x_Nm6GrmN-F99KM-5" value="Data cleaning and Data augmentation" style="rounded=0;whiteSpace=wrap;html=1;" parent="1" vertex="1">
          <mxGeometry x="510" y="70" width="120" height="60" as="geometry" />
        </mxCell>
        <mxCell id="KPFv8x_Nm6GrmN-F99KM-6" value="" style="endArrow=classic;html=1;rounded=0;exitX=1;exitY=0.5;exitDx=0;exitDy=0;entryX=0;entryY=0.5;entryDx=0;entryDy=0;" parent="1" source="KPFv8x_Nm6GrmN-F99KM-3" target="KPFv8x_Nm6GrmN-F99KM-5" edge="1">
          <mxGeometry width="50" height="50" relative="1" as="geometry">
            <mxPoint x="400" y="260" as="sourcePoint" />
            <mxPoint x="450" y="210" as="targetPoint" />
          </mxGeometry>
        </mxCell>
        <mxCell id="KPFv8x_Nm6GrmN-F99KM-8" value="Training Dataset using LSTM and CNN" style="rounded=1;whiteSpace=wrap;html=1;" parent="1" vertex="1">
          <mxGeometry x="510" y="210" width="120" height="60" as="geometry" />
        </mxCell>
        <mxCell id="KPFv8x_Nm6GrmN-F99KM-9" value="Chatbot user interface&lt;div&gt;(web page)&lt;/div&gt;" style="rounded=1;whiteSpace=wrap;html=1;" parent="1" vertex="1">
          <mxGeometry x="420" y="455" width="120" height="60" as="geometry" />
        </mxCell>
        <mxCell id="KPFv8x_Nm6GrmN-F99KM-13" value="" style="endArrow=classic;html=1;rounded=0;exitX=0.5;exitY=1;exitDx=0;exitDy=0;entryX=0.5;entryY=0;entryDx=0;entryDy=0;" parent="1" source="KPFv8x_Nm6GrmN-F99KM-5" target="KPFv8x_Nm6GrmN-F99KM-8" edge="1">
          <mxGeometry width="50" height="50" relative="1" as="geometry">
            <mxPoint x="400" y="260" as="sourcePoint" />
            <mxPoint x="450" y="210" as="targetPoint" />
          </mxGeometry>
        </mxCell>
        <mxCell id="KPFv8x_Nm6GrmN-F99KM-15" value="IPC sections output for user&#39;s legal case" style="rounded=1;whiteSpace=wrap;html=1;" parent="1" vertex="1">
          <mxGeometry x="140" y="455" width="120" height="60" as="geometry" />
        </mxCell>
        <mxCell id="-uzAYIWZktLX1qMhyTxo-1" value="" style="endArrow=classic;html=1;rounded=0;exitX=0;exitY=0.25;exitDx=0;exitDy=0;entryX=1;entryY=0.25;entryDx=0;entryDy=0;" edge="1" parent="1" source="KPFv8x_Nm6GrmN-F99KM-9" target="KPFv8x_Nm6GrmN-F99KM-15">
          <mxGeometry width="50" height="50" relative="1" as="geometry">
            <mxPoint x="380" y="360" as="sourcePoint" />
            <mxPoint x="430" y="310" as="targetPoint" />
          </mxGeometry>
        </mxCell>
        <mxCell id="-uzAYIWZktLX1qMhyTxo-2" value="Predicting output based on trained dataset" style="rounded=0;whiteSpace=wrap;html=1;" vertex="1" parent="1">
          <mxGeometry x="320" y="210" width="120" height="60" as="geometry" />
        </mxCell>
        <mxCell id="-uzAYIWZktLX1qMhyTxo-3" value="" style="endArrow=classic;html=1;rounded=0;exitX=0;exitY=0.5;exitDx=0;exitDy=0;entryX=1;entryY=0.5;entryDx=0;entryDy=0;" edge="1" parent="1" source="KPFv8x_Nm6GrmN-F99KM-8" target="-uzAYIWZktLX1qMhyTxo-2">
          <mxGeometry width="50" height="50" relative="1" as="geometry">
            <mxPoint x="400" y="270" as="sourcePoint" />
            <mxPoint x="450" y="220" as="targetPoint" />
          </mxGeometry>
        </mxCell>
        <mxCell id="-uzAYIWZktLX1qMhyTxo-9" value="Registration&lt;br&gt;web page" style="rounded=1;whiteSpace=wrap;html=1;" vertex="1" parent="1">
          <mxGeometry x="540" y="520" width="120" height="60" as="geometry" />
        </mxCell>
        <mxCell id="-uzAYIWZktLX1qMhyTxo-10" value="Login web page" style="rounded=1;whiteSpace=wrap;html=1;" vertex="1" parent="1">
          <mxGeometry x="540" y="370" width="120" height="60" as="geometry" />
        </mxCell>
        <mxCell id="-uzAYIWZktLX1qMhyTxo-11" value="" style="endArrow=classic;html=1;rounded=0;exitX=0.5;exitY=1;exitDx=0;exitDy=0;entryX=1;entryY=0.5;entryDx=0;entryDy=0;" edge="1" parent="1" source="-uzAYIWZktLX1qMhyTxo-10" target="KPFv8x_Nm6GrmN-F99KM-9">
          <mxGeometry width="50" height="50" relative="1" as="geometry">
            <mxPoint x="380" y="580" as="sourcePoint" />
            <mxPoint x="580" y="470" as="targetPoint" />
            <Array as="points">
              <mxPoint x="600" y="485" />
            </Array>
          </mxGeometry>
        </mxCell>
        <mxCell id="-uzAYIWZktLX1qMhyTxo-12" value="" style="endArrow=classic;html=1;rounded=0;exitX=0.75;exitY=0;exitDx=0;exitDy=0;entryX=0.75;entryY=1;entryDx=0;entryDy=0;" edge="1" parent="1" source="-uzAYIWZktLX1qMhyTxo-9" target="-uzAYIWZktLX1qMhyTxo-10">
          <mxGeometry width="50" height="50" relative="1" as="geometry">
            <mxPoint x="670" y="520" as="sourcePoint" />
            <mxPoint x="700" y="610" as="targetPoint" />
            <Array as="points" />
          </mxGeometry>
        </mxCell>
        <mxCell id="-uzAYIWZktLX1qMhyTxo-13" value="Database&lt;br&gt;for user info" style="shape=cylinder3;whiteSpace=wrap;html=1;boundedLbl=1;backgroundOutline=1;size=15;fillColor=#dae8fc;strokeColor=#6c8ebf;" vertex="1" parent="1">
          <mxGeometry x="750" y="360" width="60" height="80" as="geometry" />
        </mxCell>
        <mxCell id="-uzAYIWZktLX1qMhyTxo-15" value="" style="endArrow=classic;html=1;rounded=0;exitX=1;exitY=0.5;exitDx=0;exitDy=0;entryX=0.5;entryY=1;entryDx=0;entryDy=0;entryPerimeter=0;" edge="1" parent="1" source="-uzAYIWZktLX1qMhyTxo-9" target="-uzAYIWZktLX1qMhyTxo-13">
          <mxGeometry width="50" height="50" relative="1" as="geometry">
            <mxPoint x="370" y="580" as="sourcePoint" />
            <mxPoint x="420" y="530" as="targetPoint" />
            <Array as="points">
              <mxPoint x="780" y="550" />
            </Array>
          </mxGeometry>
        </mxCell>
        <mxCell id="-uzAYIWZktLX1qMhyTxo-18" value="" style="endArrow=classic;html=1;rounded=0;exitX=0;exitY=0.5;exitDx=0;exitDy=0;entryX=1;entryY=0.5;entryDx=0;entryDy=0;" edge="1" parent="1" source="-uzAYIWZktLX1qMhyTxo-2" target="-uzAYIWZktLX1qMhyTxo-20">
          <mxGeometry width="50" height="50" relative="1" as="geometry">
            <mxPoint x="390" y="350" as="sourcePoint" />
            <mxPoint x="260" y="250" as="targetPoint" />
          </mxGeometry>
        </mxCell>
        <mxCell id="-uzAYIWZktLX1qMhyTxo-21" value="" style="edgeStyle=orthogonalEdgeStyle;rounded=0;orthogonalLoop=1;jettySize=auto;html=1;exitX=0.5;exitY=1;exitDx=0;exitDy=0;" edge="1" parent="1" source="-uzAYIWZktLX1qMhyTxo-20" target="KPFv8x_Nm6GrmN-F99KM-15">
          <mxGeometry relative="1" as="geometry">
            <mxPoint x="260" y="330" as="sourcePoint" />
          </mxGeometry>
        </mxCell>
        <mxCell id="-uzAYIWZktLX1qMhyTxo-20" value="Using Flask to send predicted output to web page" style="ellipse;whiteSpace=wrap;html=1;" vertex="1" parent="1">
          <mxGeometry x="140" y="200" width="120" height="80" as="geometry" />
        </mxCell>
        <mxCell id="-uzAYIWZktLX1qMhyTxo-23" value="Case input from user through&amp;nbsp;&lt;div&gt;chatbot interface&lt;/div&gt;" style="ellipse;whiteSpace=wrap;html=1;" vertex="1" parent="1">
          <mxGeometry x="315" y="360" width="130" height="90" as="geometry" />
        </mxCell>
        <mxCell id="-uzAYIWZktLX1qMhyTxo-24" value="" style="endArrow=classic;html=1;rounded=0;exitX=0.5;exitY=0;exitDx=0;exitDy=0;entryX=1;entryY=0.5;entryDx=0;entryDy=0;" edge="1" parent="1" source="KPFv8x_Nm6GrmN-F99KM-9" target="-uzAYIWZktLX1qMhyTxo-23">
          <mxGeometry width="50" height="50" relative="1" as="geometry">
            <mxPoint x="400" y="480" as="sourcePoint" />
            <mxPoint x="450" y="430" as="targetPoint" />
            <Array as="points">
              <mxPoint x="480" y="405" />
            </Array>
          </mxGeometry>
        </mxCell>
        <mxCell id="-uzAYIWZktLX1qMhyTxo-25" value="" style="endArrow=classic;html=1;rounded=0;exitX=0.5;exitY=0;exitDx=0;exitDy=0;entryX=0.5;entryY=1;entryDx=0;entryDy=0;" edge="1" parent="1" source="-uzAYIWZktLX1qMhyTxo-23" target="-uzAYIWZktLX1qMhyTxo-2">
          <mxGeometry width="50" height="50" relative="1" as="geometry">
            <mxPoint x="450" y="340" as="sourcePoint" />
            <mxPoint x="530" y="320" as="targetPoint" />
          </mxGeometry>
        </mxCell>
        <mxCell id="-uzAYIWZktLX1qMhyTxo-28" value="" style="endArrow=classic;html=1;rounded=0;exitX=0;exitY=0.5;exitDx=0;exitDy=0;exitPerimeter=0;entryX=1;entryY=0.5;entryDx=0;entryDy=0;" edge="1" parent="1" source="-uzAYIWZktLX1qMhyTxo-13" target="-uzAYIWZktLX1qMhyTxo-10">
          <mxGeometry width="50" height="50" relative="1" as="geometry">
            <mxPoint x="440" y="510" as="sourcePoint" />
            <mxPoint x="720" y="320" as="targetPoint" />
          </mxGeometry>
        </mxCell>
      </root>
    </mxGraphModel>
  </diagram>
</mxfile>
